HIERARCHY
ROOT Hips
{
	OFFSET 0.000000 0.000000 0.000000
	CHANNELS 6 Xposition Yposition Zposition Zrotation Yrotation Xrotation 
	JOINT LHipJoint
	{
		OFFSET 0.000000 0.000000 0.000000
		CHANNELS 3 Zrotation Yrotation Xrotation
		JOINT LeftUpLeg
		{
			OFFSET 1.363060 -1.794630 0.839290
			CHANNELS 3 Zrotation Yrotation Xrotation
			JOINT LeftLeg
			{
				OFFSET 2.448110 -6.726130 0.000000
				CHANNELS 3 Zrotation Yrotation Xrotation
				JOINT LeftFoot
				{
					OFFSET 2.562200 -7.039590 0.000000
					CHANNELS 3 Zrotation Yrotation Xrotation
					JOINT LeftToeBase
					{
						OFFSET 0.157640 -0.433110 2.322550
						CHANNELS 3 Zrotation Yrotation Xrotation
						End Site
						{
							OFFSET 0.000000 0.000000 0.000000
						}
					}
				}
			}
		}
	}
	JOINT RHipJoint
	{
		OFFSET 0.000000 0.000000 0.000000
		CHANNELS 3 Zrotation Yrotation Xrotation
		JOINT RightUpLeg
		{
			OFFSET -1.305520 -1.794630 0.839290
			CHANNELS 3 Zrotation Yrotation Xrotation
			JOINT RightLeg
			{
				OFFSET -2.542530 -6.985550 0.000000
				CHANNELS 3 Zrotation Yrotation Xrotation
				JOINT RightFoot
				{
					OFFSET -2.568260 -7.056230 0.000000
					CHANNELS 3 Zrotation Yrotation Xrotation
					JOINT RightToeBase
					{
						OFFSET -0.164730 -0.452590 2.363150
						CHANNELS 3 Zrotation Yrotation Xrotation
						End Site
						{
							OFFSET 0.000000 0.000000 0.000000
						}
					}
				}
			}
		}
	}
	JOINT LowerBack
	{
		OFFSET 0.000000 0.000000 0.000000
		CHANNELS 3 Zrotation Yrotation Xrotation
		JOINT Spine
		{
			OFFSET 0.028270 2.035590 -0.193380
			CHANNELS 3 Zrotation Yrotation Xrotation
			JOINT Spine1
			{
				OFFSET 0.056720 2.048850 -0.042750
				CHANNELS 3 Zrotation Yrotation Xrotation
				JOINT Neck
				{
					OFFSET 0.000000 0.000000 0.000000
					CHANNELS 3 Zrotation Yrotation Xrotation
					JOINT Neck1
					{
						OFFSET -0.054170 1.746240 0.172020
						CHANNELS 3 Zrotation Yrotation Xrotation
						JOINT Head
						{
							OFFSET 0.104070 1.761360 -0.123970
							CHANNELS 3 Zrotation Yrotation Xrotation
							End Site
							{
								OFFSET 0.000000 0.000000 0.000000
							}
						}
					}
				}
				JOINT LeftShoulder
				{
					OFFSET 0.000000 0.000000 0.000000
					CHANNELS 3 Zrotation Yrotation Xrotation
					JOINT LeftArm
					{
						OFFSET 3.362410 1.200890 -0.311210
						CHANNELS 3 Zrotation Yrotation Xrotation
						JOINT LeftForeArm
						{
							OFFSET 4.983000 -0.000000 -0.000000
							CHANNELS 3 Zrotation Yrotation Xrotation
							JOINT LeftHand
							{
								OFFSET 3.483560 -0.000000 -0.000000
								CHANNELS 3 Zrotation Yrotation Xrotation
								JOINT LeftFingerBase
								{
									OFFSET 0.000000 0.000000 0.000000
									CHANNELS 3 Zrotation Yrotation Xrotation
									JOINT LeftHandIndex1
									{
										OFFSET 0.715260 -0.000000 -0.000000
										CHANNELS 3 Zrotation Yrotation Xrotation
										End Site
										{
											OFFSET 0.000000 0.000000 0.000000
										}
									}
								}
								JOINT LThumb
								{
									OFFSET 0.000000 0.000000 0.000000
									CHANNELS 3 Zrotation Yrotation Xrotation
									End Site
									{
										OFFSET 0.000000 0.000000 0.000000
									}
								}
							}
						}
					}
				}
				JOINT RightShoulder
				{
					OFFSET 0.000000 0.000000 0.000000
					CHANNELS 3 Zrotation Yrotation Xrotation
					JOINT RightArm
					{
						OFFSET -3.136600 1.374050 -0.404650
						CHANNELS 3 Zrotation Yrotation Xrotation
						JOINT RightForeArm
						{
							OFFSET -5.241900 -0.000000 -0.000000
							CHANNELS 3 Zrotation Yrotation Xrotation
							JOINT RightHand
							{
								OFFSET -3.444170 -0.000000 -0.000000
								CHANNELS 3 Zrotation Yrotation Xrotation
								JOINT RightFingerBase
								{
									OFFSET 0.000000 0.000000 0.000000
									CHANNELS 3 Zrotation Yrotation Xrotation
									JOINT RightHandIndex1
									{
										OFFSET -0.622530 -0.000000 -0.000000
										CHANNELS 3 Zrotation Yrotation Xrotation
										End Site
										{
											OFFSET 0.000000 0.000000 0.000000
										}
									}
								}
								JOINT RThumb
								{
									OFFSET 0.000000 0.000000 0.000000
									CHANNELS 3 Zrotation Yrotation Xrotation
									End Site
									{
										OFFSET 0.000000 0.000000 0.000000
									}
								}
							}
						}
					}
				}
			}
		}
	}
}
MOTION
Frames: 4
Frame Time: 0.008333
0.674392 17.885260 14.108969 -179.572918 -38.890617 -173.368678 -2.090579 1.427699 1.427948 -17.412247 -3.735354 -19.994039 2.323940 10.899431 34.150513 -2.615250 11.435196 -4.932267 0.757600 -5.558900 -15.509700 2.331982 -1.799043 1.695409 18.651149 2.727091 -22.020558 -2.046562 -10.492806 32.084734 -0.264015 -2.154860 -11.274233 -0.924800 -6.126600 17.152100 1.502975 3.991646 3.622568 0.898341 4.887200 -2.027533 1.197917 2.995801 -2.943902 -4.595063 10.613370 -14.406363 5.151097 14.313397 23.599571 4.738700 5.437800 12.919200 -10.769250 -1.150772 -1.575661 -78.784808 -1.379005 17.586935 10.379616 -20.538596 -2.241109 -0.398388 -1.833333 6.814026 15.397277 23.602032 6.853400 -7.125000 0.000000 0.000000 -15.232600 55.682600 -4.061100 9.702123 1.491197 -1.968567 74.035749 -7.693176 13.396222 -17.169227 24.887846 -4.814995 0.419800 -0.400098 20.061634 -15.730918 3.680689 -1.140000 7.125000 0.000000 0.000000 7.832600 -25.894700 3.657800 
0.682898 17.904601 14.106032 -179.422324 -38.545197 -173.517616 -2.040878 1.404023 1.369983 -17.181803 -4.034304 -20.449873 2.590953 11.237853 35.239637 -2.631353 11.489084 -4.578062 0.754900 -5.549000 -15.481400 2.319224 -1.797642 1.714718 18.879578 2.653850 -22.014115 -2.034503 -10.466688 32.044047 -0.050671 -3.047567 -11.456825 -0.390400 -4.012400 11.111400 1.629466 3.997812 3.871255 0.922562 4.914230 -2.049711 1.152449 3.006867 -3.091459 -4.767531 10.075911 -14.337316 5.289917 13.547931 24.065207 4.744800 5.051300 13.155400 -10.766270 -1.122161 -1.596919 -78.882154 -1.256782 18.521384 10.647742 -20.951800 -2.347739 -0.372437 -1.858020 5.611430 15.593542 23.857240 7.017200 -7.125000 0.000000 0.000000 -15.168100 55.990900 -4.157700 9.689605 1.521986 -1.955693 73.914723 -7.722930 13.376463 -17.162470 24.883631 -4.812679 0.422217 -0.391208 20.171478 -15.678186 3.538097 -1.091800 7.125000 0.000000 0.000000 7.881000 -26.053200 3.651400 
0.690999 17.907740 14.103501 -179.413764 -38.218026 -173.617075 -1.993384 1.385404 1.305202 -17.034052 -4.478319 -20.827723 2.880395 11.590102 36.408844 -2.620700 11.463477 -4.288446 0.660200 -5.196600 -14.470100 2.317378 -1.808041 1.750871 18.922049 2.648657 -21.779310 -1.977126 -10.364603 31.761796 -0.000558 -3.223560 -11.399146 -0.352500 -3.814500 10.555500 1.603055 3.952013 4.084714 0.973610 4.862752 -2.015794 1.242035 2.976627 -3.113876 -5.305620 9.499696 -14.748724 5.629449 12.839376 24.870469 4.941300 4.639200 13.617900 -10.761464 -1.083562 -1.625320 -79.061272 -1.245675 19.052693 10.885110 -21.307425 -2.421963 -0.405618 -1.914011 4.869884 16.764058 25.073088 7.929700 -7.125000 0.000000 0.000000 -14.613600 57.490500 -4.534600 9.702410 1.569671 -1.932243 73.590566 -7.495345 13.478461 -17.012275 24.708130 -4.741067 0.428580 -0.397649 20.258176 -15.740444 3.501080 -1.087000 7.125000 0.000000 0.000000 7.829500 -26.086900 3.620800 
0.697783 17.925055 14.097223 -179.503557 -37.862798 -173.729117 -1.956245 1.378045 1.250389 -16.938727 -4.991669 -21.031456 3.161047 11.903312 37.477341 -2.647192 11.550309 -3.640531 0.467000 -4.383200 -12.157400 2.310345 -1.822933 1.776947 18.868880 2.754042 -21.534753 -1.935452 -10.286490 31.545348 0.092370 -3.456090 -10.948799 -0.391100 -4.015900 11.121400 1.440966 3.893279 4.314517 1.041542 4.785270 -1.931950 1.433161 2.934149 -3.074712 -5.740825 8.946397 -15.038746 5.703885 12.161779 25.481862 5.001300 4.234900 14.001500 -10.762213 -1.060027 -1.632926 -79.277914 -1.345782 18.575759 10.926393 -21.357356 -2.445512 -0.408853 -1.882941 5.454475 16.552621 24.534031 7.669600 -7.125000 0.000000 0.000000 -14.527100 56.887400 -4.294100 9.718414 1.601689 -1.910629 73.238434 -7.239254 13.634146 -16.920112 24.601446 -4.699611 0.441932 -0.419273 20.327889 -16.042709 3.579277 -1.137500 7.125000 0.000000 0.000000 7.581100 -25.984900 3.522300 
